<svg width="20" height="22" viewBox="0 0 20 22" fill="none" xmlns="http://www.w3.org/2000/svg">
<path d="M1.42857 15.125C1.04969 15.125 0.686328 15.2699 0.418419 15.5277C0.15051 15.7856 0 16.1353 0 16.5V20.625C0 20.9897 0.15051 21.3394 0.418419 21.5973C0.686328 21.8551 1.04969 22 1.42857 22C1.80745 22 2.17081 21.8551 2.43872 21.5973C2.70663 21.3394 2.85714 20.9897 2.85714 20.625V16.5C2.85714 16.1353 2.70663 15.7856 2.43872 15.5277C2.17081 15.2699 1.80745 15.125 1.42857 15.125ZM7.14286 11C6.76398 11 6.40061 11.1449 6.13271 11.4027C5.8648 11.6606 5.71429 12.0103 5.71429 12.375V20.625C5.71429 20.9897 5.8648 21.3394 6.13271 21.5973C6.40061 21.8551 6.76398 22 7.14286 22C7.52174 22 7.8851 21.8551 8.15301 21.5973C8.42092 21.3394 8.57143 20.9897 8.57143 20.625V12.375C8.57143 12.0103 8.42092 11.6606 8.15301 11.4027C7.8851 11.1449 7.52174 11 7.14286 11ZM18.5714 0C18.1925 0 17.8292 0.144866 17.5613 0.402728C17.2934 0.660591 17.1429 1.01033 17.1429 1.375V20.625C17.1429 20.9897 17.2934 21.3394 17.5613 21.5973C17.8292 21.8551 18.1925 22 18.5714 22C18.9503 22 19.3137 21.8551 19.5816 21.5973C19.8495 21.3394 20 20.9897 20 20.625V1.375C20 1.01033 19.8495 0.660591 19.5816 0.402728C19.3137 0.144866 18.9503 0 18.5714 0ZM12.8571 5.5C12.4783 5.5 12.1149 5.64487 11.847 5.90273C11.5791 6.16059 11.4286 6.51033 11.4286 6.875V20.625C11.4286 20.9897 11.5791 21.3394 11.847 21.5973C12.1149 21.8551 12.4783 22 12.8571 22C13.236 22 13.5994 21.8551 13.8673 21.5973C14.1352 21.3394 14.2857 20.9897 14.2857 20.625V6.875C14.2857 6.51033 14.1352 6.16059 13.8673 5.90273C13.5994 5.64487 13.236 5.5 12.8571 5.5Z" fill="white"/>
</svg>
