<svg width="64" height="30" viewBox="0 0 64 30" fill="none" xmlns="http://www.w3.org/2000/svg">
<path d="M52.0195 18.1273V14.9473C52.0181 13.5304 51.5153 12.1597 50.6001 11.078C49.685 9.99635 48.4166 9.27341 47.0195 9.03727V7.94727C47.0195 7.68205 46.9142 7.4277 46.7266 7.24016C46.5391 7.05262 46.2847 6.94727 46.0195 6.94727C45.7543 6.94727 45.5 7.05262 45.3124 7.24016C45.1249 7.4277 45.0195 7.68205 45.0195 7.94727V9.03727C43.6225 9.27341 42.3541 9.99635 41.4389 11.078C40.5238 12.1597 40.021 13.5304 40.0195 14.9473V18.1273C39.436 18.3336 38.9305 18.7153 38.5725 19.2202C38.2144 19.7251 38.0213 20.3283 38.0195 20.9473V22.9473C38.0195 23.2125 38.1249 23.4668 38.3124 23.6544C38.5 23.8419 38.7543 23.9473 39.0195 23.9473H42.1595C42.3898 24.7946 42.8925 25.5427 43.5901 26.076C44.2877 26.6093 45.1414 26.8983 46.0195 26.8983C46.8976 26.8983 47.7513 26.6093 48.4489 26.076C49.1465 25.5427 49.6492 24.7946 49.8795 23.9473H53.0195C53.2847 23.9473 53.5391 23.8419 53.7266 23.6544C53.9142 23.4668 54.0195 23.2125 54.0195 22.9473V20.9473C54.0178 20.3283 53.8247 19.7251 53.4666 19.2202C53.1085 18.7153 52.6031 18.3336 52.0195 18.1273ZM42.0195 14.9473C42.0195 13.8864 42.441 12.869 43.1911 12.1188C43.9412 11.3687 44.9587 10.9473 46.0195 10.9473C47.0804 10.9473 48.0978 11.3687 48.848 12.1188C49.5981 12.869 50.0195 13.8864 50.0195 14.9473V17.9473H42.0195V14.9473ZM46.0195 24.9473C45.6705 24.9452 45.3281 24.8517 45.0264 24.6763C44.7246 24.5009 44.474 24.2495 44.2995 23.9473H47.7395C47.565 24.2495 47.3144 24.5009 47.0127 24.6763C46.711 24.8517 46.3686 24.9452 46.0195 24.9473ZM52.0195 21.9473H40.0195V20.9473C40.0195 20.682 40.1249 20.4277 40.3124 20.2402C40.5 20.0526 40.7543 19.9473 41.0195 19.9473H51.0195C51.2847 19.9473 51.5391 20.0526 51.7266 20.2402C51.9142 20.4277 52.0195 20.682 52.0195 20.9473V21.9473Z" fill="black"/>
<path d="M17.5596 9.05225H3.55957C2.76392 9.05225 2.00086 9.36832 1.43825 9.93093C0.875641 10.4935 0.55957 11.2566 0.55957 12.0522V22.0522C0.55957 22.8479 0.875641 23.611 1.43825 24.1736C2.00086 24.7362 2.76392 25.0522 3.55957 25.0522H15.1496L18.8496 28.7622C18.943 28.8549 19.0538 28.9283 19.1757 28.978C19.2975 29.0278 19.428 29.053 19.5596 29.0522C19.6907 29.0556 19.8209 29.0282 19.9396 28.9722C20.1222 28.8972 20.2785 28.7698 20.3888 28.6061C20.4992 28.4424 20.5586 28.2497 20.5596 28.0522V12.0522C20.5596 11.2566 20.2435 10.4935 19.6809 9.93093C19.1183 9.36832 18.3552 9.05225 17.5596 9.05225ZM18.5596 25.6422L16.2696 23.3422C16.1761 23.2496 16.0653 23.1762 15.9435 23.1265C15.8216 23.0767 15.6912 23.0515 15.5596 23.0522H3.55957C3.29435 23.0522 3.04 22.9469 2.85246 22.7594C2.66493 22.5718 2.55957 22.3175 2.55957 22.0522V12.0522C2.55957 11.787 2.66493 11.5327 2.85246 11.3451C3.04 11.1576 3.29435 11.0522 3.55957 11.0522H17.5596C17.8248 11.0522 18.0791 11.1576 18.2667 11.3451C18.4542 11.5327 18.5596 11.787 18.5596 12.0522V25.6422Z" fill="black"/>
<circle cx="54" cy="10" r="10" fill="#F45B5B"/>
<path d="M51.957 15H50.1465V10.043C50.1465 9.90625 50.1484 9.73828 50.1523 9.53906C50.1562 9.33594 50.1621 9.12891 50.1699 8.91797C50.1777 8.70312 50.1855 8.50977 50.1934 8.33789C50.1504 8.38867 50.0625 8.47656 49.9297 8.60156C49.8008 8.72266 49.6797 8.83203 49.5664 8.92969L48.582 9.7207L47.709 8.63086L50.4688 6.43359H51.957V15ZM60.2891 10.7168C60.2891 11.4082 60.2344 12.0254 60.125 12.5684C60.0195 13.1113 59.8477 13.5723 59.6094 13.9512C59.375 14.3301 59.0664 14.6191 58.6836 14.8184C58.3008 15.0176 57.8359 15.1172 57.2891 15.1172C56.6016 15.1172 56.0371 14.9434 55.5957 14.5957C55.1543 14.2441 54.8281 13.7402 54.6172 13.084C54.4062 12.4238 54.3008 11.6348 54.3008 10.7168C54.3008 9.79102 54.3965 9 54.5879 8.34375C54.7832 7.68359 55.0996 7.17773 55.5371 6.82617C55.9746 6.47461 56.5586 6.29883 57.2891 6.29883C57.9727 6.29883 58.5352 6.47461 58.9766 6.82617C59.4219 7.17383 59.752 7.67773 59.9668 8.33789C60.1816 8.99414 60.2891 9.78711 60.2891 10.7168ZM56.0996 10.7168C56.0996 11.3691 56.1348 11.9141 56.2051 12.3516C56.2793 12.7852 56.4023 13.1113 56.5742 13.3301C56.7461 13.5488 56.9844 13.6582 57.2891 13.6582C57.5898 13.6582 57.8262 13.5508 57.998 13.3359C58.1738 13.1172 58.2988 12.791 58.373 12.3574C58.4473 11.9199 58.4844 11.373 58.4844 10.7168C58.4844 10.0645 58.4473 9.51953 58.373 9.08203C58.2988 8.64453 58.1738 8.31641 57.998 8.09766C57.8262 7.875 57.5898 7.76367 57.2891 7.76367C56.9844 7.76367 56.7461 7.875 56.5742 8.09766C56.4023 8.31641 56.2793 8.64453 56.2051 9.08203C56.1348 9.51953 56.0996 10.0645 56.0996 10.7168Z" fill="white"/>
<circle cx="23" cy="10" r="10" fill="#F45B5B"/>
<path d="M20.957 15H19.1465V10.043C19.1465 9.90625 19.1484 9.73828 19.1523 9.53906C19.1562 9.33594 19.1621 9.12891 19.1699 8.91797C19.1777 8.70312 19.1855 8.50977 19.1934 8.33789C19.1504 8.38867 19.0625 8.47656 18.9297 8.60156C18.8008 8.72266 18.6797 8.83203 18.5664 8.92969L17.582 9.7207L16.709 8.63086L19.4688 6.43359H20.957V15ZM29.2891 10.7168C29.2891 11.4082 29.2344 12.0254 29.125 12.5684C29.0195 13.1113 28.8477 13.5723 28.6094 13.9512C28.375 14.3301 28.0664 14.6191 27.6836 14.8184C27.3008 15.0176 26.8359 15.1172 26.2891 15.1172C25.6016 15.1172 25.0371 14.9434 24.5957 14.5957C24.1543 14.2441 23.8281 13.7402 23.6172 13.084C23.4062 12.4238 23.3008 11.6348 23.3008 10.7168C23.3008 9.79102 23.3965 9 23.5879 8.34375C23.7832 7.68359 24.0996 7.17773 24.5371 6.82617C24.9746 6.47461 25.5586 6.29883 26.2891 6.29883C26.9727 6.29883 27.5352 6.47461 27.9766 6.82617C28.4219 7.17383 28.752 7.67773 28.9668 8.33789C29.1816 8.99414 29.2891 9.78711 29.2891 10.7168ZM25.0996 10.7168C25.0996 11.3691 25.1348 11.9141 25.2051 12.3516C25.2793 12.7852 25.4023 13.1113 25.5742 13.3301C25.7461 13.5488 25.9844 13.6582 26.2891 13.6582C26.5898 13.6582 26.8262 13.5508 26.998 13.3359C27.1738 13.1172 27.2988 12.791 27.373 12.3574C27.4473 11.9199 27.4844 11.373 27.4844 10.7168C27.4844 10.0645 27.4473 9.51953 27.373 9.08203C27.2988 8.64453 27.1738 8.31641 26.998 8.09766C26.8262 7.875 26.5898 7.76367 26.2891 7.76367C25.9844 7.76367 25.7461 7.875 25.5742 8.09766C25.4023 8.31641 25.2793 8.64453 25.2051 9.08203C25.1348 9.51953 25.0996 10.0645 25.0996 10.7168Z" fill="white"/>
</svg>
