<svg width="18" height="19" viewBox="0 0 18 19" fill="none" xmlns="http://www.w3.org/2000/svg">
<path d="M17.6538 16.8596L14.4166 13.6485C15.6732 12.0817 16.2817 10.093 16.1171 8.09128C15.9524 6.08958 15.0271 4.22704 13.5313 2.88663C12.0356 1.54623 10.0831 0.829839 8.07544 0.884777C6.06773 0.939715 4.15737 1.7618 2.73717 3.182C1.31698 4.60219 0.494891 6.51255 0.439953 8.52026C0.385015 10.528 1.1014 12.4804 2.44181 13.9762C3.78221 15.4719 5.64476 16.3972 7.64646 16.5619C9.64816 16.7265 11.6369 16.118 13.2037 14.8614L16.4148 18.0725C16.4959 18.1543 16.5924 18.2192 16.6987 18.2635C16.8051 18.3078 16.9191 18.3306 17.0343 18.3306C17.1495 18.3306 17.2635 18.3078 17.3699 18.2635C17.4762 18.2192 17.5727 18.1543 17.6538 18.0725C17.8111 17.9098 17.899 17.6923 17.899 17.466C17.899 17.2397 17.8111 17.0223 17.6538 16.8596ZM8.30849 14.8614C7.10042 14.8614 5.91949 14.5031 4.91502 13.832C3.91055 13.1608 3.12767 12.2069 2.66536 11.0908C2.20306 9.97466 2.0821 8.74653 2.31778 7.56168C2.55346 6.37683 3.1352 5.28848 3.98943 4.43425C4.84365 3.58002 5.93201 2.99828 7.11686 2.7626C8.30171 2.52692 9.52984 2.64788 10.6459 3.11019C11.762 3.57249 12.716 4.35538 13.3872 5.35985C14.0583 6.36431 14.4166 7.54525 14.4166 8.75331C14.4166 10.3733 13.773 11.9269 12.6275 13.0724C11.4821 14.2179 9.92845 14.8614 8.30849 14.8614Z" fill="#FEFEFE"/>
</svg>
