<svg width="20" height="18" viewBox="0 0 20 18" fill="none" xmlns="http://www.w3.org/2000/svg">
<path d="M14.3155 11.3208H13.4573L13.1531 11.0429C14.2177 9.86964 14.8587 8.34648 14.8587 6.68954C14.8587 2.99485 11.6974 0 7.79751 0C3.89756 0 0.736328 2.99485 0.736328 6.68954C0.736328 10.3842 3.89756 13.3791 7.79751 13.3791C9.54651 13.3791 11.1543 12.7719 12.3927 11.7633L12.686 12.0515V12.8645L18.1177 18L19.7363 16.4666L14.3155 11.3208ZM7.79751 11.3208C5.09253 11.3208 2.909 9.25214 2.909 6.68954C2.909 4.12693 5.09253 2.05832 7.79751 2.05832C10.5025 2.05832 12.686 4.12693 12.686 6.68954C12.686 9.25214 10.5025 11.3208 7.79751 11.3208Z" fill="#B1B1B1"/>
</svg>
