<svg width="17" height="11" viewBox="0 0 17 11" fill="none" xmlns="http://www.w3.org/2000/svg">
<path d="M5.8418 0.0012207C4.51571 0.0012207 3.24394 0.528005 2.30626 1.46569C1.36858 2.40337 0.841797 3.67514 0.841797 5.00122C0.841797 6.3273 1.36858 7.59907 2.30626 8.53675C3.24394 9.47444 4.51571 10.0012 5.8418 10.0012H11.8418C13.1679 10.0012 14.4396 9.47444 15.3773 8.53675C16.315 7.59907 16.8418 6.3273 16.8418 5.00122C16.8418 3.67514 16.315 2.40337 15.3773 1.46569C14.4396 0.528005 13.1679 0.0012207 11.8418 0.0012207H5.8418ZM11.8418 9.00122C10.7809 9.00122 9.76352 8.57979 9.01337 7.82965C8.26322 7.0795 7.8418 6.06209 7.8418 5.00122C7.8418 3.94035 8.26322 2.92294 9.01337 2.17279C9.76352 1.42265 10.7809 1.00122 11.8418 1.00122C12.9027 1.00122 13.9201 1.42265 14.6702 2.17279C15.4204 2.92294 15.8418 3.94035 15.8418 5.00122C15.8418 6.06209 15.4204 7.0795 14.6702 7.82965C13.9201 8.57979 12.9027 9.00122 11.8418 9.00122Z" fill="black"/>
</svg>
