<svg width="29" height="20" viewBox="0 0 29 20" fill="none" xmlns="http://www.w3.org/2000/svg">
<path d="M2.47046 11.5247C3.31223 11.5247 3.99463 10.8423 3.99463 10.0005C3.99463 9.15871 3.31223 8.47632 2.47046 8.47632C1.62868 8.47632 0.946289 9.15871 0.946289 10.0005C0.946289 10.8423 1.62868 11.5247 2.47046 11.5247Z" fill="white"/>
<path d="M26.9486 8.47632H8.47569C7.68442 8.47632 7.04297 9.11777 7.04297 9.90904V10.0919C7.04297 10.8832 7.68442 11.5247 8.47569 11.5247H26.9486C27.7399 11.5247 28.3813 10.8832 28.3813 10.0919V9.90904C28.3813 9.11777 27.7399 8.47632 26.9486 8.47632Z" fill="white"/>
<path d="M26.9486 16.0972H2.37901C1.58774 16.0972 0.946289 16.7386 0.946289 17.5299V17.7128C0.946289 18.5041 1.58774 19.1455 2.37901 19.1455H26.9486C27.7399 19.1455 28.3813 18.5041 28.3813 17.7128V17.5299C28.3813 16.7386 27.7399 16.0972 26.9486 16.0972Z" fill="white"/>
<path d="M26.9486 0.855469H2.37901C1.58774 0.855469 0.946289 1.49692 0.946289 2.28819V2.47109C0.946289 3.26236 1.58774 3.9038 2.37901 3.9038H26.9486C27.7399 3.9038 28.3813 3.26236 28.3813 2.47109V2.28819C28.3813 1.49692 27.7399 0.855469 26.9486 0.855469Z" fill="white"/>
</svg>
